<?xml version="1.0" encoding="UTF-8"?>
<svg version="1.1" viewBox="0 0 64 64" xmlns="http://www.w3.org/2000/svg">
 <defs>
  <filter id="b">
   <feGaussianBlur stdDeviation="0.24337619"/>
  </filter>
  <linearGradient id="a" x1="25.153" x2="28.837" y1="16.954" y2="54.124" gradientUnits="userSpaceOnUse">
   <stop stop-color="#00b400" offset="0"/>
   <stop stop-color="#007800" offset="1"/>
  </linearGradient>
 </defs>
 <g stroke="#000" stroke-width="0">
  <g transform="translate(-.54468 -1.9064)" fill="#001000" filter="url(#b)">
   <g transform="translate(.27234 .27234)">
    <path d="m37.866 53.851c-12.969-13.287-10.453 4.822-22.15-4.0609 12.408 1.8981 8.9231-7.861 22.962 3.101l-0.8122 0.9598z"/>
    <path d="m25.758 48.018c-6.1761-2.3157-1.7878-1.0064-8.8601-5.9806 2.3045 3.4939 1.9518 5.1538 5.6114 5.9806-5.5657-1.3068-6.0419 1.001-11.149-2.7319 3.4232 3.3986 3.9313 5.927 14.398 2.7319z"/>
    <path d="m19.012 46.946c-4.1908-5.0935-1.1928-4.4974-5.6427-10.274 1.4301 4.3996 0.07335 6.1037 2.8292 8.6496-4.1667-3.9145-5.2161-1.2681-8.5109-6.6113 1.2652 4.6549 0.66257 5.7695 11.324 8.2357z"/>
    <path d="m13.947 42.834c-1.9686-4.956-0.77773-8.6259-2.2601-11.276-0.8874 4.599-0.92096 6.061 0.04507 8.5362-2.168-4.5874-3.0711-2.0819-5.9108-7.9875-0.19804 4.8854 2.4883 7.3952 8.1258 10.727z"/>
    <path d="m10.282 36.828c-0.61882-5.2967 1.186-3.9556 1.6213-11.403-2.7858 4.6557-3.049 5.8376-2.7565 8.4784-0.90682-4.9922-1.6893-3.1011-2.9038-9.5405-1.4557 4.6676-0.54422 7.7872 4.0389 12.465z"/>
    <path d="m8.6903 30.219c0.99465-5.2025 4.1629-4.3998 4.665-9.93-1.6808 3.8498-3.7914 1.6747-4.5616 6.7378 0.41616-5.0568-1.1244-6.7552 0.25513-9.524-3.4264 3.4673-1.8767 6.1997-0.35852 12.716z"/>
    <path d="m9.5025 23.943c1.6592-4.8333 5.6396-2.7016 6.1417-8.2318-1.6808 2.5946-3.2008 1.4532-5.3738 5.5564 1.1545-3.1371-0.16456-3.3588 2.6917-7.2351-3.6479 1.9906-3.944 3.5417-3.4596 9.9105z"/>
    <path d="m11.803 18.337c4.3408-3.1177 2.278-2.8282 6.4974-6.9404-6.3889 2.5786-4.8099 3.349-6.4974 6.9404z"/>
   </g>
   <path d="m25.319 53.851c12.969-13.287 10.453 4.822 22.15-4.0609-12.408 1.8981-8.9231-7.861-22.962 3.101l0.8122 0.9598z"/>
   <path d="m37.428 48.018c6.1761-2.3157 1.7878-1.0064 8.8601-5.9806-2.3045 3.4939-1.9519 5.1538-5.6114 5.9806 5.5657-1.3068 6.0419 1.001 11.149-2.7319-3.4232 3.3986-3.9313 5.927-14.398 2.7319z"/>
   <path d="m44.173 46.946c4.1908-5.0935 1.1928-4.4974 5.6426-10.274-1.4301 4.3996-0.07335 6.1037-2.8292 8.6496 4.1667-3.9145 5.2161-1.2681 8.5109-6.6113-1.2652 4.6549-0.66257 5.7695-11.324 8.2357z"/>
   <path d="m49.239 42.834c1.9686-4.956 0.77773-8.6259 2.2601-11.276 0.8874 4.599 0.92096 6.061-0.04507 8.5362 2.168-4.5874 3.0711-2.0819 5.9108-7.9875 0.19804 4.8854-2.4883 7.3952-8.1258 10.727z"/>
   <path d="m52.904 36.828c0.61882-5.2967-1.186-3.9556-1.6213-11.403 2.7858 4.6557 3.049 5.8376 2.7565 8.4784 0.90682-4.9922 1.6893-3.1011 2.9038-9.5405 1.4557 4.6676 0.54422 7.7872-4.0389 12.465z"/>
   <path d="m54.495 30.219c-0.99465-5.2025-4.1629-4.3998-4.665-9.93 1.6808 3.8498 3.7914 1.6747 4.5616 6.7378-0.41616-5.0568 1.1244-6.7552-0.25513-9.524 3.4264 3.4673 1.8767 6.1997 0.35852 12.716z"/>
   <path d="m53.683 23.943c-1.6592-4.8333-5.6396-2.7016-6.1417-8.2318 1.6808 2.5946 3.2008 1.4532 5.3738 5.5564-1.1545-3.1371 0.16456-3.3588-2.6917-7.2351 3.6479 1.9906 3.944 3.5417 3.4596 9.9105z"/>
   <path d="m51.382 18.337c-4.3408-3.1177-2.278-2.8282-6.4974-6.9404 6.3889 2.5786 4.8099 3.349 6.4974 6.9404z"/>
  </g>
  <g transform="translate(-.28149 -1.9064)" fill="url(#a)">
   <g transform="translate(.27234 .27234)">
    <path d="m37.866 53.851c-12.969-13.287-10.453 4.822-22.15-4.0609 12.408 1.8981 8.9231-7.861 22.962 3.101l-0.8122 0.9598z"/>
    <path d="m25.758 48.018c-6.1761-2.3157-1.7878-1.0064-8.8601-5.9806 2.3045 3.4939 1.9518 5.1538 5.6114 5.9806-5.5657-1.3068-6.0419 1.001-11.149-2.7319 3.4232 3.3986 3.9313 5.927 14.398 2.7319z"/>
    <path d="m19.012 46.946c-4.1908-5.0935-1.1928-4.4974-5.6427-10.274 1.4301 4.3996 0.07335 6.1037 2.8292 8.6496-4.1667-3.9145-5.2161-1.2681-8.5109-6.6113 1.2652 4.6549 0.66257 5.7695 11.324 8.2357z"/>
    <path d="m13.947 42.834c-1.9686-4.956-0.77773-8.6259-2.2601-11.276-0.8874 4.599-0.92096 6.061 0.04507 8.5362-2.168-4.5874-3.0711-2.0819-5.9108-7.9875-0.19804 4.8854 2.4883 7.3952 8.1258 10.727z"/>
    <path d="m10.282 36.828c-0.61882-5.2967 1.186-3.9556 1.6213-11.403-2.7858 4.6557-3.049 5.8376-2.7565 8.4784-0.90682-4.9922-1.6893-3.1011-2.9038-9.5405-1.4557 4.6676-0.54422 7.7872 4.0389 12.465z"/>
    <path d="m8.6903 30.219c0.99465-5.2025 4.1629-4.3998 4.665-9.93-1.6808 3.8498-3.7914 1.6747-4.5616 6.7378 0.41616-5.0568-1.1244-6.7552 0.25513-9.524-3.4264 3.4673-1.8767 6.1997-0.35852 12.716z"/>
    <path d="m9.5025 23.943c1.6592-4.8333 5.6396-2.7016 6.1417-8.2318-1.6808 2.5946-3.2008 1.4532-5.3738 5.5564 1.1545-3.1371-0.16456-3.3588 2.6917-7.2351-3.6479 1.9906-3.944 3.5417-3.4596 9.9105z"/>
    <path d="m11.803 18.337c4.3408-3.1177 2.278-2.8282 6.4974-6.9404-6.3889 2.5786-4.8099 3.349-6.4974 6.9404z"/>
   </g>
   <path d="m25.319 53.851c12.969-13.287 10.453 4.822 22.15-4.0609-12.408 1.8981-8.9231-7.861-22.962 3.101l0.8122 0.9598z"/>
   <path d="m37.428 48.018c6.1761-2.3157 1.7878-1.0064 8.8601-5.9806-2.3045 3.4939-1.9519 5.1538-5.6114 5.9806 5.5657-1.3068 6.0419 1.001 11.149-2.7319-3.4232 3.3986-3.9313 5.927-14.398 2.7319z"/>
   <path d="m44.173 46.946c4.1908-5.0935 1.1928-4.4974 5.6426-10.274-1.4301 4.3996-0.07335 6.1037-2.8292 8.6496 4.1667-3.9145 5.2161-1.2681 8.5109-6.6113-1.2652 4.6549-0.66257 5.7695-11.324 8.2357z"/>
   <path d="m49.239 42.834c1.9686-4.956 0.77773-8.6259 2.2601-11.276 0.8874 4.599 0.92096 6.061-0.04507 8.5362 2.168-4.5874 3.0711-2.0819 5.9108-7.9875 0.19804 4.8854-2.4883 7.3952-8.1258 10.727z"/>
   <path d="m52.904 36.828c0.61882-5.2967-1.186-3.9556-1.6213-11.403 2.7858 4.6557 3.049 5.8376 2.7565 8.4784 0.90682-4.9922 1.6893-3.1011 2.9038-9.5405 1.4557 4.6676 0.54422 7.7872-4.0389 12.465z"/>
   <path d="m54.495 30.219c-0.99465-5.2025-4.1629-4.3998-4.665-9.93 1.6808 3.8498 3.7914 1.6747 4.5616 6.7378-0.41616-5.0568 1.1244-6.7552-0.25513-9.524 3.4264 3.4673 1.8767 6.1997 0.35852 12.716z"/>
   <path d="m53.683 23.943c-1.6592-4.8333-5.6396-2.7016-6.1417-8.2318 1.6808 2.5946 3.2008 1.4532 5.3738 5.5564-1.1545-3.1371 0.16456-3.3588-2.6917-7.2351 3.6479 1.9906 3.944 3.5417 3.4596 9.9105z"/>
   <path d="m51.382 18.337c-4.3408-3.1177-2.278-2.8282-6.4974-6.9404 6.3889 2.5786 4.8099 3.349 6.4974 6.9404z"/>
  </g>
 </g>
</svg>
